<svg xmlns="http://www.w3.org/2000/svg" viewBox="0 0 100 100"><g fill="none" stroke="#E95420" stroke-width="3" stroke-linecap="round" stroke-linejoin="round" opacity=".5"><path d="M58 28C75 28 85 45 82 62"/><path d="M72 74C50 90 30 85 18 72"/><path d="M22 62C15 45 30 28 48 28"/></g><g fill="#E95420"><circle cx="50" cy="25" r="11"/><circle cx="22" cy="70" r="11"/><circle cx="78" cy="70" r="11"/></g><g fill="none" stroke="#FFF" stroke-width="2.2" stroke-linecap="round" stroke-linejoin="round"><path d="M48 20L45 27H52L49 33"/><path d="M19 67L19 75L25 75M19 69H24M19 72H24"/><path d="M78 63L82 70L78 77L74 70Z"/></g></svg>